<?xml version="1.0" encoding="UTF-8" standalone="no"?>
<!DOCTYPE svg PUBLIC "-//W3C//DTD SVG 1.1//EN"
 "http://www.w3.org/Graphics/SVG/1.1/DTD/svg11.dtd">
<!-- Generated by graphviz version 2.43.0 (0)
 -->
<!-- Title: IterationCycle Pages: 1 -->
<svg width="467pt" height="697pt"
 viewBox="0.00 0.00 467.20 697.20" xmlns="http://www.w3.org/2000/svg" xmlns:xlink="http://www.w3.org/1999/xlink">
<g id="graph0" class="graph" transform="scale(1 1) rotate(0) translate(21.6 675.6)">
<title>IterationCycle</title>
<!-- A -->
<g id="node1" class="node">
<title>A</title>
<path fill="#9c27b0" stroke="#444444" stroke-width="1.2" d="M267,-654C267,-654 120,-654 120,-654 114,-654 108,-648 108,-642 108,-642 108,-622 108,-622 108,-616 114,-610 120,-610 120,-610 267,-610 267,-610 273,-610 279,-616 279,-622 279,-622 279,-642 279,-642 279,-648 273,-654 267,-654"/>
<text text-anchor="middle" x="193.5" y="-635.4" font-family="Helvetica,sans-Serif" font-size="12.00" fill="white">Observe failure pattern</text>
<text text-anchor="middle" x="193.5" y="-622.4" font-family="Helvetica,sans-Serif" font-size="12.00" fill="white">in trajectory logs</text>
</g>
<!-- B -->
<g id="node2" class="node">
<title>B</title>
<path fill="#ff9800" stroke="#444444" stroke-width="1.2" d="M295,-577C295,-577 92,-577 92,-577 86,-577 80,-571 80,-565 80,-565 80,-545 80,-545 80,-539 86,-533 92,-533 92,-533 295,-533 295,-533 301,-533 307,-539 307,-545 307,-545 307,-565 307,-565 307,-571 301,-577 295,-577"/>
<text text-anchor="middle" x="193.5" y="-558.4" font-family="Helvetica,sans-Serif" font-size="12.00" fill="white">Write change_manifest</text>
<text text-anchor="middle" x="193.5" y="-545.4" font-family="Helvetica,sans-Serif" font-size="12.00" fill="white">predicted impact + rollback plan</text>
</g>
<!-- A&#45;&gt;B -->
<g id="edge1" class="edge">
<title>A&#45;&gt;B</title>
<path fill="none" stroke="#555555" stroke-width="1.5" d="M193.5,-609.71C193.5,-602.12 193.5,-593.44 193.5,-585.3"/>
<polygon fill="#555555" stroke="#555555" stroke-width="1.5" points="196.3,-585.08 193.5,-577.09 190.7,-585.09 196.3,-585.08"/>
</g>
<!-- C -->
<g id="node3" class="node">
<title>C</title>
<path fill="#ff9800" stroke="#444444" stroke-width="1.2" d="M265.5,-500C265.5,-500 121.5,-500 121.5,-500 115.5,-500 109.5,-494 109.5,-488 109.5,-488 109.5,-468 109.5,-468 109.5,-462 115.5,-456 121.5,-456 121.5,-456 265.5,-456 265.5,-456 271.5,-456 277.5,-462 277.5,-468 277.5,-468 277.5,-488 277.5,-488 277.5,-494 271.5,-500 265.5,-500"/>
<text text-anchor="middle" x="193.5" y="-481.4" font-family="Helvetica,sans-Serif" font-size="12.00" fill="white">One&#45;file diff</text>
<text text-anchor="middle" x="193.5" y="-468.4" font-family="Helvetica,sans-Serif" font-size="12.00" fill="white">at constrained surface</text>
</g>
<!-- B&#45;&gt;C -->
<g id="edge2" class="edge">
<title>B&#45;&gt;C</title>
<path fill="none" stroke="#555555" stroke-width="1.5" d="M193.5,-532.71C193.5,-525.12 193.5,-516.44 193.5,-508.3"/>
<polygon fill="#555555" stroke="#555555" stroke-width="1.5" points="196.3,-508.08 193.5,-500.09 190.7,-508.09 196.3,-508.08"/>
</g>
<!-- D -->
<g id="node4" class="node">
<title>D</title>
<path fill="#009688" stroke="#444444" stroke-width="1.2" d="M306,-423C306,-423 81,-423 81,-423 75,-423 69,-417 69,-411 69,-411 69,-391 69,-391 69,-385 75,-379 81,-379 81,-379 306,-379 306,-379 312,-379 318,-385 318,-391 318,-391 318,-411 318,-411 318,-417 312,-423 306,-423"/>
<text text-anchor="middle" x="193.5" y="-404.4" font-family="Helvetica,sans-Serif" font-size="12.00" fill="white">CI validates manifest schema</text>
<text text-anchor="middle" x="193.5" y="-391.4" font-family="Helvetica,sans-Serif" font-size="12.00" fill="white">+ unit tests + clinical&#45;accuracy gate</text>
</g>
<!-- C&#45;&gt;D -->
<g id="edge3" class="edge">
<title>C&#45;&gt;D</title>
<path fill="none" stroke="#555555" stroke-width="1.5" d="M193.5,-455.71C193.5,-448.12 193.5,-439.44 193.5,-431.3"/>
<polygon fill="#555555" stroke="#555555" stroke-width="1.5" points="196.3,-431.08 193.5,-423.09 190.7,-431.09 196.3,-431.08"/>
</g>
<!-- E -->
<g id="node5" class="node">
<title>E</title>
<path fill="#607d8b" stroke="#444444" stroke-width="1.2" d="M182.58,-332.03C182.58,-332.03 140.75,-312.97 140.75,-312.97 135.29,-310.49 135.29,-305.51 140.75,-303.03 140.75,-303.03 182.58,-283.97 182.58,-283.97 188.04,-281.49 198.96,-281.49 204.42,-283.97 204.42,-283.97 246.25,-303.03 246.25,-303.03 251.71,-305.51 251.71,-310.49 246.25,-312.97 246.25,-312.97 204.42,-332.03 204.42,-332.03 198.96,-334.51 188.04,-334.51 182.58,-332.03"/>
<text text-anchor="middle" x="193.5" y="-304.9" font-family="Helvetica,sans-Serif" font-size="12.00" fill="white">Merge?</text>
</g>
<!-- D&#45;&gt;E -->
<g id="edge4" class="edge">
<title>D&#45;&gt;E</title>
<path fill="none" stroke="#555555" stroke-width="1.5" d="M193.5,-378.89C193.5,-368.92 193.5,-356.73 193.5,-345.34"/>
<polygon fill="#555555" stroke="#555555" stroke-width="1.5" points="196.3,-345.23 193.5,-337.23 190.7,-345.23 196.3,-345.23"/>
</g>
<!-- F -->
<g id="node6" class="node">
<title>F</title>
<path fill="#009688" stroke="#444444" stroke-width="1.2" d="M302,-236C302,-236 85,-236 85,-236 79,-236 73,-230 73,-224 73,-224 73,-204 73,-204 73,-198 79,-192 85,-192 85,-192 302,-192 302,-192 308,-192 314,-198 314,-204 314,-204 314,-224 314,-224 314,-230 308,-236 302,-236"/>
<text text-anchor="middle" x="193.5" y="-217.4" font-family="Helvetica,sans-Serif" font-size="12.00" fill="white">Tag harness&#45;iter&#45;N</text>
<text text-anchor="middle" x="193.5" y="-204.4" font-family="Helvetica,sans-Serif" font-size="12.00" fill="white">+ run eval suite (100+ cases, k=2)</text>
</g>
<!-- E&#45;&gt;F -->
<g id="edge5" class="edge">
<title>E&#45;&gt;F</title>
<path fill="none" stroke="#555555" stroke-width="1.5" d="M193.5,-278.9C193.5,-267.95 193.5,-255.4 193.5,-244.33"/>
<polygon fill="#555555" stroke="#555555" stroke-width="1.5" points="196.3,-244.21 193.5,-236.21 190.7,-244.21 196.3,-244.21"/>
<text text-anchor="middle" x="205.5" y="-255" font-family="Helvetica,sans-Serif" font-size="10.00"> &#160;yes</text>
</g>
<!-- H -->
<g id="node7" class="node">
<title>H</title>
<path fill="#607d8b" stroke="#444444" stroke-width="1.2" d="M182.02,-155.52C182.02,-155.52 86.36,-126.48 86.36,-126.48 80.62,-124.74 80.62,-121.26 86.36,-119.52 86.36,-119.52 182.02,-90.48 182.02,-90.48 187.76,-88.74 199.24,-88.74 204.98,-90.48 204.98,-90.48 300.64,-119.52 300.64,-119.52 306.38,-121.26 306.38,-124.74 300.64,-126.48 300.64,-126.48 204.98,-155.52 204.98,-155.52 199.24,-157.26 187.76,-157.26 182.02,-155.52"/>
<text text-anchor="middle" x="193.5" y="-126.4" font-family="Helvetica,sans-Serif" font-size="12.00" fill="white">Predicted impact</text>
<text text-anchor="middle" x="193.5" y="-113.4" font-family="Helvetica,sans-Serif" font-size="12.00" fill="white">verified?</text>
</g>
<!-- F&#45;&gt;H -->
<g id="edge6" class="edge">
<title>F&#45;&gt;H</title>
<path fill="none" stroke="#555555" stroke-width="1.5" d="M193.5,-191.91C193.5,-184.51 193.5,-175.9 193.5,-167.35"/>
<polygon fill="#555555" stroke="#555555" stroke-width="1.5" points="196.3,-167.21 193.5,-159.21 190.7,-167.21 196.3,-167.21"/>
</g>
<!-- I -->
<g id="node8" class="node">
<title>I</title>
<path fill="#e91e63" stroke="#444444" stroke-width="1.2" d="M219,-44C219,-44 12,-44 12,-44 6,-44 0,-38 0,-32 0,-32 0,-12 0,-12 0,-6 6,0 12,0 12,0 219,0 219,0 225,0 231,-6 231,-12 231,-12 231,-32 231,-32 231,-38 225,-44 219,-44"/>
<text text-anchor="middle" x="115.5" y="-25.4" font-family="Helvetica,sans-Serif" font-size="12.00" fill="white">Ratify</text>
<text text-anchor="middle" x="115.5" y="-12.4" font-family="Helvetica,sans-Serif" font-size="12.00" fill="white">append verdict to DECISIONS.md</text>
</g>
<!-- H&#45;&gt;I -->
<g id="edge7" class="edge">
<title>H&#45;&gt;I</title>
<path fill="none" stroke="#555555" stroke-width="1.5" d="M171.15,-93.63C160.47,-80.08 147.74,-63.92 137.16,-50.49"/>
<polygon fill="#555555" stroke="#555555" stroke-width="1.5" points="139.3,-48.68 132.15,-44.13 134.9,-52.15 139.3,-48.68"/>
<text text-anchor="middle" x="164.5" y="-63" font-family="Helvetica,sans-Serif" font-size="10.00"> &#160;yes</text>
</g>
<!-- J -->
<g id="node9" class="node">
<title>J</title>
<path fill="#e91e63" stroke="#444444" stroke-width="1.2" d="M412,-44C412,-44 265,-44 265,-44 259,-44 253,-38 253,-32 253,-32 253,-12 253,-12 253,-6 259,0 265,0 265,0 412,0 412,0 418,0 424,-6 424,-12 424,-12 424,-32 424,-32 424,-38 418,-44 412,-44"/>
<text text-anchor="middle" x="338.5" y="-25.4" font-family="Helvetica,sans-Serif" font-size="12.00" fill="white">Revert</text>
<text text-anchor="middle" x="338.5" y="-12.4" font-family="Helvetica,sans-Serif" font-size="12.00" fill="white">file&#45;granularity rollback</text>
</g>
<!-- H&#45;&gt;J -->
<g id="edge8" class="edge">
<title>H&#45;&gt;J</title>
<path fill="none" stroke="#555555" stroke-width="1.5" d="M229.34,-97.53C251.08,-82.69 278.78,-63.77 300.84,-48.71"/>
<polygon fill="#555555" stroke="#555555" stroke-width="1.5" points="302.46,-50.99 307.49,-44.17 299.31,-46.37 302.46,-50.99"/>
<text text-anchor="middle" x="293" y="-63" font-family="Helvetica,sans-Serif" font-size="10.00"> &#160;no</text>
</g>
<!-- I&#45;&gt;A -->
<g id="edge9" class="edge">
<title>I&#45;&gt;A</title>
<path fill="none" stroke="#888888" stroke-width="1.2" stroke-dasharray="5,2" d="M231.02,-43.99C273.24,-54.49 313.24,-68.87 323.5,-87 336.16,-109.37 330.12,-226.13 324.5,-236 317.59,-248.12 306.3,-241.17 297.5,-252 272.33,-282.98 293.67,-306.02 268.5,-337 259.7,-347.83 248.41,-340.88 241.5,-353 221.52,-388.06 302.67,-347.99 328.5,-379 341.01,-394.03 336.75,-405.27 328.5,-423 323.84,-433.01 314.16,-428.99 309.5,-439 294.88,-470.43 301.54,-483.26 309.5,-517 311.33,-524.74 315.67,-525.26 317.5,-533 321.99,-552.03 328.22,-560.64 317.5,-577 309.47,-589.26 297.97,-598.76 285.19,-606.1"/>
<polygon fill="#888888" stroke="#888888" stroke-width="1.2" points="283.7,-603.72 277.97,-609.97 286.34,-608.66 283.7,-603.72"/>
<text text-anchor="middle" x="279.5" y="-355.8" font-family="Helvetica,sans-Serif" font-size="9.00"> &#160;observe again &#160;</text>
</g>
<!-- J&#45;&gt;A -->
<g id="edge10" class="edge">
<title>J&#45;&gt;A</title>
<path fill="none" stroke="#888888" stroke-width="1.2" stroke-dasharray="5,2" d="M344.45,-44.19C364.68,-120.56 424.91,-387.21 337.5,-577 327.91,-597.83 308.55,-610.76 287.05,-618.74"/>
<polygon fill="#888888" stroke="#888888" stroke-width="1.2" points="286.04,-616.13 279.37,-621.37 287.85,-621.43 286.04,-616.13"/>
</g>
</g>
</svg>
